<svg width="47" height="45" viewBox="0 0 47 45" fill="none" xmlns="http://www.w3.org/2000/svg">
<path d="M46.907 19.12C46.744 18.773 46.396 18.551 46.011 18.551H43.084C41.223 8.45199 32.355 0.774994 21.726 0.774994C9.747 0.774994 0 10.522 0 22.501C0 34.48 9.746 44.226 21.726 44.226C29.457 44.226 36.667 40.065 40.542 33.369C41.088 32.424 40.766 31.217 39.82 30.67C38.876 30.123 37.668 30.445 37.123 31.39C33.951 36.871 28.051 40.277 21.726 40.277C11.925 40.277 3.95 32.303 3.95 22.503C3.95 12.701 11.925 4.72699 21.726 4.72699C30.168 4.72699 37.241 10.648 39.043 18.552H36.139C35.754 18.552 35.407 18.774 35.243 19.121C35.08 19.468 35.133 19.877 35.379 20.172L40.317 26.097C40.505 26.322 40.782 26.452 41.076 26.452C41.369 26.452 41.647 26.321 41.834 26.097L46.772 20.172C47.018 19.876 47.07 19.467 46.907 19.12Z" fill="#BC4123"/>
<path d="M21.726 5.713C20.635 5.713 19.751 6.597 19.751 7.688V19.672C18.858 20.298 18.27 21.33 18.27 22.502C18.27 24.408 19.821 25.959 21.727 25.959C22.249 25.959 22.741 25.834 23.185 25.625L30.055 29.59C30.367 29.771 30.705 29.856 31.041 29.856C31.723 29.856 32.387 29.502 32.753 28.868C33.298 27.925 32.975 26.716 32.029 26.171L25.152 22.2C25.06 21.156 24.517 20.244 23.703 19.674V7.688C23.701 6.598 22.816 5.713 21.726 5.713ZM21.726 23.982C20.909 23.982 20.245 23.317 20.245 22.502C20.245 21.686 20.91 21.021 21.726 21.021C22.542 21.021 23.207 21.686 23.207 22.502C23.207 23.317 22.542 23.982 21.726 23.982Z" fill="#BC4123"/>
</svg>
